# xmcd
#
# Track frame offsets:
#	150
#	24258
#	57767
#	82121
#	113285
#	131885
#	149302
#	168503
#	199533
#	219015
#	242012
#	293823
#	315179
#	333311
#
# Disc length: 4757
#
# Revision: 1
# Processed by: cddbd v1.5.1PL0 Copyright (c) Steve Scherf et al.
# Submitted via: CDex 1.51
# Normalized: r0:TDELIM( - )
#
DISCID=b712930e
DTITLE=Blues Paradise - My Favourites Blues And Ballads vol.19
DYEAR=2003
DGENRE=Blues
TTITLE0=Bugs Henderson - Thiteen Ways
TTITLE1=Big Jack Johnson and The Oilers - Lonely Man
TTITLE2=B.B. King - Darling What Happened
TTITLE3=Neal Schon - Love Trance
TTITLE4=Oscar Benton - How Can I Just Start Again
TTITLE5=Mason Ruffner - Let Me Down Easy
TTITLE6=J. Allen Blues Review - 500 Blue Balls
TTITLE7=Paul Dean - Bad Times
TTITLE8=Pounders - Booze Blues
TTITLE9=Don Griffin - Sleeping With The Devil
TTITLE10=Jimi "Prime" Smith - If Trouble Was Money
TTITLE11=Mike Henderson - Drowning On Dry Land
TTITLE12=Murali Coryell - That Makes Me Happy
TTITLE13=Indigenous - Holdin' Out
EXTD=YEAR: 2003
EXTT0=
EXTT1=
EXTT2=
EXTT3=
EXTT4=
EXTT5=
EXTT6=
EXTT7=
EXTT8=
EXTT9=
EXTT10=
EXTT11=
EXTT12=
EXTT13=
PLAYORDER=
